<?xml version="1.0" encoding="UTF-8" standalone="no"?>
<svg width="24px" height="24px" viewBox="0 0 24 24" version="1.1" xmlns="http://www.w3.org/2000/svg" xmlns:xlink="http://www.w3.org/1999/xlink">
    <!-- Generator: sketchtool 40.1 (33804) - http://www.bohemiancoding.com/sketch -->
    <title>9ED7E0C0-B1B7-4073-A87D-53BF61034C34</title>
    <desc>Created with sketchtool.</desc>
    <defs></defs>
    <g id="Symbols" stroke="none" stroke-width="1" fill="none" fill-rule="evenodd">
        <g id="navigation-/-default-collapse" transform="translate(-1204.000000, -23.000000)">
            <g id="main_nav-standart">
                <g id="no-name" transform="translate(987.000000, 23.000000)">
                    <g id="Group-2" transform="translate(217.000000, 0.000000)">
                        <rect id="bound" x="0" y="0" width="24" height="24"></rect>
                        <g id="icn_notif" transform="translate(3.000000, 4.000000)" stroke="#999999" stroke-linecap="round" stroke-linejoin="round">
                            <path d="M15.6521739,12.6315789 L15.6521739,8.28947368 C15.6521739,5.40710526 13.8451304,2.95578947 11.3165217,2.00605263 C11.1427826,0.870789474 10.173913,0 9,0 C7.82608696,0 6.85408696,0.870789474 6.68113043,2.00605263 C4.15173913,2.95578947 2.34782609,5.40710526 2.34782609,8.28947368 L2.34782609,12.6315789 C2.34782609,13.9397368 1.296,15 0,15 L18,15 C16.7016522,15 15.6521739,13.9397368 15.6521739,12.6315789 L15.6521739,12.6315789 Z" id="Stroke-1310"></path>
                            <path d="M11.3684211,15 C11.3684211,16.1046667 10.3073684,17 9,17 C7.69026316,17 6.63157895,16.1046667 6.63157895,15" id="Stroke-1311"></path>
                        </g>
                    </g>
                </g>
            </g>
        </g>
    </g>
</svg>