<?xml version="1.0" encoding="UTF-8" standalone="no"?>
<svg width="24px" height="24px" viewBox="0 0 24 24" version="1.1" xmlns="http://www.w3.org/2000/svg" xmlns:xlink="http://www.w3.org/1999/xlink">
    <!-- Generator: sketchtool 3.8.3 (29802) - http://www.bohemiancoding.com/sketch -->
    <title>D49BEE59-01DA-4FEF-A586-68214F9779B8</title>
    <desc>Created with sketchtool.</desc>
    <defs></defs>
    <g id="search" stroke="none" stroke-width="1" fill="none" fill-rule="evenodd" stroke-linecap="round" stroke-linejoin="round">
        <g id="search-result---pengguna" transform="translate(-1107.000000, -23.000000)" stroke="#333333" fill="#333333">
            <g id="top-nav">
                <g id="main_nav_login">
                    <g id="main_nav">
                        <g>
                            <g id="icn_notif_selected" transform="translate(1107.000000, 23.000000)">
                                <path d="M18.6521739,16.6315789 L18.6521739,12.2894737 C18.6521739,9.40710526 16.8451304,6.95578947 14.3165217,6.00605263 C14.1427826,4.87078947 13.173913,4 12,4 C10.826087,4 9.85408696,4.87078947 9.68113043,6.00605263 C7.15173913,6.95578947 5.34782609,9.40710526 5.34782609,12.2894737 L5.34782609,16.6315789 C5.34782609,17.9397368 4.296,19 3,19 L21,19 C19.7016522,19 18.6521739,17.9397368 18.6521739,16.6315789 L18.6521739,16.6315789 Z" id="Stroke-1310"></path>
                                <path d="M14.3684211,19 C14.3684211,20.1046667 13.3073684,21 12,21 C10.6902632,21 9.63157895,20.1046667 9.63157895,19" id="Stroke-1311"></path>
                            </g>
                        </g>
                    </g>
                </g>
            </g>
        </g>
    </g>
</svg>