<?xml version="1.0" encoding="UTF-8" standalone="no"?>
<svg width="12px" height="12px" viewBox="0 0 12 12" version="1.1" xmlns="http://www.w3.org/2000/svg" xmlns:xlink="http://www.w3.org/1999/xlink">
    <!-- Generator: sketchtool 39.1 (31720) - http://www.bohemiancoding.com/sketch -->
    <title>DEDDC838-9491-4783-BA6D-DA3C627706A6</title>
    <desc>Created with sketchtool.</desc>
    <defs></defs>
    <g id="Symbols" stroke="none" stroke-width="1" fill="none" fill-rule="evenodd">
        <g id="Footer" transform="translate(-67.000000, -75.000000)" fill="#999999">
            <g id="Group" transform="translate(57.000000, 66.000000)">
                <g id="Group-3" transform="translate(10.000000, 9.000000)">
                    <g id="Group-2">
                        <path d="M6,0 C2.7,0 0,2.7 0,6 C0,9.3 2.7,12 6,12 C9.3,12 12,9.3 12,6 C12,2.7 9.3,0 6,0 L6,0 Z M5.4,10.74 C3.06,10.44 1.2,8.4 1.2,6 C1.2,5.64 1.26,5.28 1.32,4.92 L4.2,7.8 L4.2,8.4 C4.2,9.06 4.74,9.6 5.4,9.6 L5.4,10.74 L5.4,10.74 Z M9.54,9.24 C9.36,8.76 8.94,8.4 8.4,8.4 L7.8,8.4 L7.8,6.6 C7.8,6.24 7.56,6 7.2,6 L3.6,6 L3.6,4.8 L4.8,4.8 C5.16,4.8 5.4,4.56 5.4,4.2 L5.4,3 L6.6,3 C7.26,3 7.8,2.46 7.8,1.8 L7.8,1.56 C9.54,2.28 10.8,4.02 10.8,6 C10.8,7.26 10.32,8.4 9.54,9.24 L9.54,9.24 Z" id="Shape"></path>
                    </g>
                </g>
            </g>
        </g>
    </g>
</svg>