<?xml version="1.0" encoding="UTF-8"?>
<svg width="195px" height="35px" viewBox="0 0 195 35" version="1.1" xmlns="http://www.w3.org/2000/svg" xmlns:xlink="http://www.w3.org/1999/xlink">
    <!-- Generator: Sketch 43.2 (39069) - http://www.bohemiancoding.com/sketch -->
    <title>logo-nba</title>
    <desc>Created with Sketch.</desc>
    <defs></defs>
    <g id="Page-1" stroke="none" stroke-width="1" fill="none" fill-rule="evenodd">
        <g id="logo-nba">
            <g id="logo" fill="#EF423C">
                <g>
                    <path d="M70.7224877,7.64915712 C70.7224877,5.9835659 71.9619096,4.63062591 73.5696766,4.63062591 C75.2108663,4.63062591 76.4495919,5.9835659 76.4495919,7.64915712 C76.4495919,9.31474835 75.2108663,10.598524 73.5696766,10.598524 C71.9619096,10.598524 70.7224877,9.31474835 70.7224877,7.64915712 Z M39.0198148,7.64915712 C39.0198148,5.9835659 40.2592368,4.63062591 41.8670038,4.63062591 C43.5081934,4.63062591 44.7469191,5.9835659 44.7469191,7.64915712 C44.7469191,9.31474835 43.5081934,10.598524 41.8670038,10.598524 C40.2592368,10.598524 39.0198148,9.31474835 39.0198148,7.64915712 Z M84.6149455,26.4891111 C79.820193,26.1461123 81.8763801,16.0862236 87.353511,16.4645104 C92.830642,16.8427972 89.4096981,26.83211 84.6149455,26.4891111 Z M52.761105,26.4199468 C51.35457,26.4199468 50.3832252,25.3443701 50.3832252,23.4705799 C50.3832252,20.4520487 52.6942598,16.9825375 55.0721395,16.9825375 C56.4118293,16.9825375 57.5168645,17.9543676 57.5168645,19.9664865 C57.5168645,22.9504356 55.20583,26.4199468 52.761105,26.4199468 Z M93.0262665,14.5652388 C91.6481651,13.1272362 89.6450754,12.2984151 87.3110365,12.2984151 C81.8589725,12.2984151 77.8475624,16.8886716 77.1644877,21.6603081 C75.486394,24.9689063 73.8514711,27.0791257 72.1629327,27.0791257 C70.8566655,27.0791257 70.6554335,25.8998024 71.0913201,24.4078279 L74.5742351,12.6110663 L69.6840888,12.6110663 C69.6840888,12.6110663 68.2288125,17.373528 67.1634666,20.5219189 C66.0981208,23.6703097 63.3783555,27.0791257 61.8715527,27.0791257 C60.8326664,27.0791257 60.9336305,25.9343846 61.268553,24.7889377 L66.8285442,6.01857154 L61.9383979,6.01857154 L59.1246315,15.490563 C58.3210962,13.408574 56.6464839,12.2984151 54.4357172,12.2984151 C49.9633536,12.2984151 46.3746004,16.8738506 45.4331968,21.7167688 C43.7655475,24.9929021 42.1396766,27.0791257 40.4601902,27.0791257 C39.153923,27.0791257 38.9526911,25.8998024 39.3885777,24.4078279 L42.8714926,12.6110663 L37.9813463,12.6110663 L34.8333538,23.2277988 C33.6607771,27.2527424 34.6321218,30.618507 38.5509234,30.618507 C41.2776517,30.618507 43.5037371,28.9218624 45.3935074,26.1743426 C46.0166999,29.0587796 48.0311087,30.618507 50.6847251,30.618507 C52.8613728,30.618507 54.8374849,29.5083481 56.3449841,27.8081747 C56.6464839,29.4038958 57.6512513,30.618507 59.827899,30.618507 C62.1939416,30.618507 64.2891218,29.1265325 66.0911577,26.7460074 C66.2659302,29.0369011 67.5673232,30.618507 70.2536659,30.618507 C73.1495962,30.618507 75.4815198,28.7044886 77.4444021,25.6492579 C78.4080875,28.6727295 81.1160156,30.618507 84.7319247,30.618507 C87.813072,30.618507 90.459029,29.1611147 92.3014506,27.0099613 C93.5610654,25.7325375 95.0219121,23.2736732 95.0142528,19.827452 C95.0142528,19.2384522 94.958851,18.6748938 94.8525981,18.140176 C95.1949618,18.1215527 95.528043,18.0884144 95.8505841,18.0402585 C99.0501031,17.5631654 101.288026,15.5454005 100.89531,12.8388147 C100.674581,11.3150811 99.2750095,10.2846729 97.7382655,10.5133388 C96.2015215,10.7427105 95.1542796,12.137996 95.3757044,13.6624355 C95.3938084,13.7866491 95.4119123,13.9108626 95.4655277,14.0618951 C95.0804714,14.2778573 94.6188215,14.41054 94.0854523,14.4902908 C93.755301,14.5394832 93.400858,14.5640542 93.0262665,14.5652388 Z M27.0710908,3.81674464 C27.0710908,5.94178497 28.7039248,7.63348927 30.7552378,7.63348927 C30.9230472,7.63348927 31.0901602,7.63348927 31.2997479,7.58973221 C31.5086392,8.15363365 31.5928921,8.80434344 31.5928921,9.54186159 C31.5928921,15.0496048 26.1916583,24.5914664 19.5349876,29.2318317 L20.7911208,18.8663494 C21.9630013,9.49810453 18.6980296,3.33965156 11.0358952,3.33965156 C5.46754838,3.33965156 1.03,7.98001694 1.03,13.6620826 C1.03,19.3864938 5.51002296,24.2442329 11.7057401,22.9865704 L10.4920814,16.8281174 C8.39829389,16.9579771 6.34698093,15.0496048 6.34698093,12.4044201 C6.34698093,9.97519761 8.27295909,7.98001694 10.6174162,7.98001694 C12.7105075,7.98001694 15.8508406,9.49810453 14.9714081,16.8711687 L12.752982,35 L17.8603753,35 C28.0340799,30.0124012 36.6167288,16.697552 36.6167288,7.85015728 C36.6167288,3.42645991 34.3976065,0 30.7552378,0 C28.7039248,0 27.0710908,1.69170431 27.0710908,3.81674464"></path>
                </g>
            </g>
            <g id="NBA-logo" transform="translate(127.000000, 5.000000)">
                <g>
                    <path d="M3.06338028,0.408496732 L8.82253521,0.408496732 C10.2112676,0.408496732 11.3549296,1.55228758 11.3549296,2.94117647 L11.3549296,22.4264706 C11.3549296,23.8153595 10.2112676,24.9591503 8.82253521,24.9591503 L3.06338028,24.9591503 C1.67464789,24.9591503 0.530985915,23.8153595 0.530985915,22.4264706 L0.530985915,2.94117647 C0.530985915,1.55228758 1.67464789,0.408496732 3.06338028,0.408496732 Z" id="rect3032" fill="#FFFFFF" fill-rule="nonzero"></path>
                    <path d="M7.39295775,4.90196078 L7.39295775,4.98366013 C7.55633803,5.10620915 7.63802817,5.1879085 7.84225352,5.26960784 C8.2915493,5.55555556 8.86338028,6.08660131 8.82253521,7.88398693 C8.94507042,8.29248366 9.02676056,9.06862745 9.14929577,9.31372549 C9.3943662,9.80392157 9.55774648,10.130719 9.63943662,10.5800654 C9.63943662,10.5800654 9.72112676,11.2745098 9.8028169,11.3562092 C10.2929577,11.4787582 10.1295775,11.5196078 10.2112676,11.6013072 C10.2929577,11.6830065 10.5788732,11.6830065 10.5788732,11.9689542 C10.6605634,12.0915033 10.7422535,12.2140523 10.8239437,12.377451 L10.8239437,2.98202614 C10.8239437,1.91993464 9.96619718,1.02124183 8.90422535,1.02124183 L6.94366197,1.02124183 C7.22957746,1.14379085 7.39295775,1.26633987 7.51549296,1.47058824 C7.76056338,1.47058824 8.04647887,2.04248366 7.5971831,2.81862745 C7.80140845,2.94117647 7.63802817,3.14542484 7.51549296,3.39052288 C7.47464789,3.47222222 7.43380282,3.59477124 7.31126761,3.59477124 C7.14788732,3.9624183 6.94366197,4.28921569 6.78028169,4.33006536 C6.73943662,4.37091503 6.69859155,4.53431373 6.78028169,4.61601307 C6.98450704,4.65686275 7.27042254,4.77941176 7.39295775,4.90196078 L7.39295775,4.90196078 Z" id="path3034" fill="#D71E54" fill-rule="nonzero"></path>
                    <path d="M9.1084507,24.3055556 L9.1084507,24.3055556 C9.92535211,23.7745098 9.3943662,22.7941176 9.23098592,22.2222222 L9.27183099,22.1405229 C9.31267606,22.0588235 9.23098592,21.8954248 9.23098592,21.8954248 C9.1084507,21.8137255 9.1084507,21.3235294 9.02676056,21.119281 C8.94507042,20.751634 9.19014085,20.1388889 9.19014085,19.9346405 C9.19014085,19.7303922 9.02676056,19.4444444 8.74084507,19.0767974 C8.65915493,18.995098 8.45492958,17.1568627 8.25070423,16.7075163 C8.0056338,16.0539216 7.92394366,16.1764706 7.5971831,15.4003268 C7.35211268,14.869281 7.55633803,14.0931373 6.98450704,12.254902 L7.10704225,12.1323529 C7.10704225,12.1323529 6.65774648,10.5392157 6.53521127,10.130719 C6.41267606,9.68137255 6.12676056,9.68137255 6.12676056,9.68137255 L6.12676056,9.43627451 C6.12676056,9.35457516 6.65774648,8.04738562 6.69859155,8.00653595 C6.69859155,7.96568627 7.43380282,7.4754902 7.43380282,7.55718954 C7.47464789,7.88398693 7.76056338,9.51797386 7.88309859,9.80392157 C8.0056338,10.0490196 8.41408451,10.8660131 8.61830986,11.3562092 C7.88309859,11.5604575 7.31126761,12.2140523 7.31126761,13.0310458 C7.31126761,13.9705882 8.08732394,14.746732 9.02676056,14.746732 C9.76197183,14.746732 10.3746479,14.2973856 10.6605634,13.6437908 L10.6605634,22.4264706 C10.7422535,23.3660131 10.0478873,24.1421569 9.1084507,24.3055556 L9.1084507,24.3055556 Z" id="path3036" fill="#D71E54" fill-rule="nonzero"></path>
                    <path d="M6.37183099,1.02124183 C5.75915493,1.26633987 5.63661972,1.55228758 5.63661972,2.41013072 C5.51408451,2.41013072 5.30985915,2.32843137 5.3915493,2.85947712 C5.3915493,2.85947712 5.43239437,3.22712418 5.55492958,3.14542484 C5.43239437,3.92156863 5.51408451,4.12581699 5.02394366,4.16666667 C4.90140845,4.16666667 4.77887324,4.16666667 4.61549296,4.20751634 L4.57464789,4.28921569 C3.88028169,4.37091503 3.51267606,4.33006536 3.06338028,4.90196078 C2.85915493,5.10620915 2.69577465,5.43300654 2.45070423,5.88235294 C2.45070423,5.88235294 2.24647887,6.41339869 2.16478873,6.61764706 C1.96056338,7.02614379 1.47042254,7.96568627 1.30704225,8.57843137 C1.26619718,8.78267974 1.18450704,8.86437908 1.30704225,9.1503268 C1.51126761,9.55882353 1.18450704,9.68137255 2.28732394,9.64052288 L2.28732394,9.88562092 C2.28732394,9.88562092 2.00140845,10.130719 1.91971831,10.2941176 C1.87887324,10.4575163 1.67464789,11.1928105 1.71549296,11.5604575 C1.71549296,12.5 2.4915493,13.2761438 2.73661972,14.2156863 L3.22676056,14.2973856 C3.51267606,14.9509804 4.6971831,16.6666667 4.98309859,16.9117647 L4.98309859,16.9117647 C5.06478873,17.0751634 5.35070423,17.2794118 5.55492958,17.4836601 C5.67746479,17.6062092 6.16760563,18.1372549 6.86197183,18.6683007 C7.10704225,18.872549 7.39295775,19.0359477 7.67887324,19.1993464 C7.67887324,19.1993464 7.84225352,19.5261438 7.92394366,19.8120915 C7.55633803,20.0980392 8.25070423,20.5882353 8.45492958,21.4460784 C8.45492958,21.5686275 8.25070423,21.6911765 8.57746479,21.9362745 C8.57746479,23.2026144 8.16901408,23.8970588 8.82253521,24.2647059 L3.02253521,24.2647059 C1.96056338,24.2238562 1.14366197,23.3660131 1.14366197,22.3447712 L1.14366197,2.94117647 C1.14366197,1.87908497 2.00140845,1.02124183 3.02253521,0.980392157 L6.37183099,1.02124183 L6.37183099,1.02124183 Z" id="path3038" fill="#006BB6" fill-rule="nonzero"></path>
                    <polygon id="path3040" fill="#FFFFFF" fill-rule="nonzero" points="3.26760563 22.9575163 3.92112676 22.9575163 3.92112676 20.0571895 3.34929577 20.0571895 3.34929577 21.7728758 3.34929577 21.7728758 3.34929577 21.6503268 2.9 20.0571895 2.24647887 20.0571895 2.24647887 22.9575163 2.81830986 22.9575163 2.81830986 21.1601307 2.81830986 21.1601307 2.81830986 21.2826797"></polygon>
                    <path d="M4.12535211,20.0571895 L4.12535211,22.9575163 L5.1056338,22.9575163 C5.71830986,22.9575163 5.88169014,22.5898693 5.88169014,22.0996732 C5.88169014,21.7320261 5.75915493,21.4869281 5.43239437,21.4460784 L5.43239437,21.4460784 C5.75915493,21.3235294 5.8,21.0784314 5.8,20.751634 C5.8,20.2614379 5.55492958,20.0571895 5.06478873,20.0571895 L4.12535211,20.0571895 Z M4.81971831,20.5473856 L5.02394366,20.5473856 C5.18732394,20.5473856 5.22816901,20.6699346 5.22816901,20.874183 C5.22816901,21.0375817 5.22816901,21.2009804 4.98309859,21.2009804 L4.77887324,21.2009804 L4.81971831,20.5473856 L4.81971831,20.5473856 Z M4.81971831,21.6911765 L5.02394366,21.6911765 C5.22816901,21.6911765 5.26901408,21.8954248 5.26901408,22.0996732 C5.26901408,22.3856209 5.22816901,22.5081699 5.02394366,22.5081699 L4.81971831,22.5081699 L4.81971831,21.6911765 Z" id="path3042" fill="#FFFFFF" fill-rule="nonzero"></path>
                    <path d="M6.41267606,20.0571895 L5.88169014,22.9575163 L6.53521127,22.9575163 L6.61690141,22.3039216 L7.06619718,22.3039216 L7.14788732,22.9575163 L7.84225352,22.9575163 L7.31126761,20.0571895 L6.41267606,20.0571895 Z M6.86197183,20.5065359 L6.86197183,20.5065359 L6.86197183,20.5882353 L7.02535211,21.8954248 L6.69859155,21.8954248 L6.86197183,20.5882353 L6.86197183,20.5065359 L6.86197183,20.5065359 Z" id="path3048" fill="#FFFFFF" fill-rule="nonzero"></path>
                    <polygon id="path3073" fill="#006BB6" fill-rule="nonzero" points="21.6478873 23.8562092 26.7535211 23.8562092 26.7535211 1.30718954 22.2605634 1.30718954 22.2605634 14.624183 22.1788732 14.624183 22.015493 13.6846405 18.4211268 1.30718954 13.356338 1.30718954 13.356338 23.8562092 17.8492958 23.8562092 17.8492958 9.92647059 17.9309859 9.92647059 18.0126761 10.7026144"></polygon>
                    <path d="M28.5098592,1.30718954 L28.5098592,23.8562092 L36.0253521,23.8562092 C40.6408451,23.8562092 42.0704225,20.9558824 42.0704225,17.1568627 C42.0704225,14.3382353 41.171831,12.4591503 38.6394366,11.9689542 L38.6394366,11.9281046 C41.171831,11.0702614 41.4985915,8.9869281 41.4985915,6.57679739 C41.4985915,2.69607843 39.6605634,1.26633987 35.9028169,1.26633987 L28.5098592,1.30718954 L28.5098592,1.30718954 Z M33.8605634,5.14705882 L35.4943662,5.14705882 C36.7605634,5.14705882 37.0873239,6.04575163 37.0873239,7.59803922 C37.0873239,8.9869281 36.9239437,10.2124183 35.2901408,10.2124183 L33.8605634,10.2124183 L33.8605634,5.14705882 Z M33.8605634,13.8888889 L35.4943662,13.8888889 C37.128169,13.8888889 37.2915493,15.4003268 37.2915493,16.9117647 C37.2915493,19.1584967 37.128169,20.0163399 35.371831,20.0163399 L33.8605634,20.0163399 L33.8605634,13.8888889 L33.8605634,13.8888889 Z" id="path3075" fill="#006BB6" fill-rule="nonzero"></path>
                    <path d="M46.3183099,1.30718954 L42.1521127,23.8562092 L47.2985915,23.8562092 L47.8295775,18.9133987 L51.4647887,18.9133987 L51.9549296,23.8562092 L57.3873239,23.8562092 L53.1394366,1.30718954 L46.3183099,1.30718954 L46.3183099,1.30718954 Z M49.7084507,4.69771242 L49.7901408,4.69771242 L49.7901408,5.26960784 L50.9746479,15.3594771 L48.3605634,15.3594771 L49.6676056,5.26960784 C49.7084507,5.26960784 49.7084507,4.69771242 49.7084507,4.69771242 Z" id="path3077" fill="#006BB6" fill-rule="nonzero"></path>
                </g>
            </g>
            <path d="M114.5,6.5 L114.5,28.590722" id="Line" stroke="#EEEEEE" stroke-linecap="square"></path>
        </g>
    </g>
</svg>